<?xml version="1.0" encoding="UTF-8"?><svg id="a" xmlns="http://www.w3.org/2000/svg" viewBox="0 0 1080 1080"><defs><style>.b{fill:#fff;}</style></defs><path class="b" d="M231.98,489.95h-4.1v295.65s.99-5.39,9.03-5.39V491.11h-4.93v-1.16Z"/><path class="b" d="M845,792.87h4.98V474.05h-4.98v7.87h-4.9v2.86h.96v5.04h-6v2.12h-6.11v287.34s13.18,1.05,16.05,13.6Z"/><path class="b" d="M0,0V1080H1080V0H0ZM1063.97,337.99l-71.09,26.17v5.86h42.15v66.88l-61.02,12.06v10.03h-6.94v3.1l.97,.97v5.88h-8.98v3.18h-8.05v394.72l84.05,63.12v65.97h-195.91l8.37,12.55v19.53H188.99v-19.94l8.01-12.1H43.13v-65.99l83.79-68.97V472.9h-7.87v-3.26h-9.04v-6.61h1.36v-3.47h-7.02v-9.58l-61.35-14v-66.04h42.03v-4.02l-70.05-28.07v-17.86L539.47,24l524.5,296.11v17.88Z"/></svg>