<?xml version="1.0" encoding="UTF-8"?><svg id="a" xmlns="http://www.w3.org/2000/svg" viewBox="0 0 1080 1080"><defs><style>.b{fill:#fff;}</style></defs><path class="b" d="M1063.97,337.99v-17.88L539.47,24,14.99,320v17.86l70.05,28.07v4.02H43.01v66.04l61.35,14v9.58h7.02v3.47h-1.36v6.61h9.04v3.26h7.87v388.11l-83.79,68.97v65.99H197l-8.01,12.1v19.94H847.53v-19.53l-8.37-12.55h195.91v-65.97l-84.05-63.12V472.12h8.05v-3.18h8.98v-5.88l-.97-.97v-3.1h6.94v-10.03l61.02-12.06v-66.88h-42.15v-5.86l71.09-26.17ZM236.91,780.21c-8.04,0-9.03,5.39-9.03,5.39V489.95h4.1v1.16h4.93v289.1Zm613.07,12.66h-4.98c-2.86-12.55-16.05-13.6-16.05-13.6V491.94h6.11v-2.12h6v-5.04h-.96v-2.86h4.9v-7.87h4.98v318.83Z"/></svg>